<?xml version="1.0" encoding="UTF-8" standalone="no"?>
<!-- Created with Inkscape (http://www.inkscape.org/) -->

<svg
   width="20.643999mm"
   height="20.644163mm"
   viewBox="0 0 20.643999 20.644163"
   version="1.1"
   id="svg12180"
   inkscape:version="1.1.1 (3bf5ae0d25, 2021-09-20)"
   sodipodi:docname="icon_help.svg"
   xmlns:inkscape="http://www.inkscape.org/namespaces/inkscape"
   xmlns:sodipodi="http://sodipodi.sourceforge.net/DTD/sodipodi-0.dtd"
   xmlns="http://www.w3.org/2000/svg"
   xmlns:svg="http://www.w3.org/2000/svg">
  <sodipodi:namedview
     id="namedview12182"
     pagecolor="#ffffff"
     bordercolor="#666666"
     borderopacity="1.0"
     inkscape:pageshadow="2"
     inkscape:pageopacity="0.0"
     inkscape:pagecheckerboard="0"
     inkscape:document-units="mm"
     showgrid="false"
     inkscape:zoom="8.7988368"
     inkscape:cx="111.09423"
     inkscape:cy="20.343598"
     inkscape:window-width="3440"
     inkscape:window-height="1365"
     inkscape:window-x="0"
     inkscape:window-y="0"
     inkscape:window-maximized="1"
     inkscape:current-layer="layer1" />
  <defs
     id="defs12177" />
  <g
     inkscape:label="Capa 1"
     inkscape:groupmode="layer"
     id="layer1"
     transform="translate(-71.301468,-81.444428)">
    <ellipse
       style="fill:#ff7800;fill-opacity:1;stroke-width:0.267617;stroke-linecap:square"
       id="path8316"
       cx="81.68972"
       cy="91.766457"
       rx="10.123243"
       ry="10.189538" />
    <path
       id="ellipse8478"
       style="fill:#ffffff;fill-opacity:1;stroke-width:0.155403;stroke-linecap:square"
       d="m 81.755933,84.978927 a 3.6497813,3.6736827 0 0 0 -3.62717,3.283521 0.17804455,0.700773 0 0 1 0.0847,-0.08785 0.17804455,0.700773 0 0 1 0.17829,0.700733 0.17804455,0.700773 0 0 1 -0.11473,0.654225 c 0.11415,0.248562 0.32766,0.556082 0.72709,0.85938 0.69869,0.530518 1.93328,0.536598 2.45205,0.51263 0.006,-0.06795 0.0618,-0.120925 0.13125,-0.120925 h 0.37673 c 0.0731,0 0.13177,0.05865 0.13177,0.131775 v 0.05633 c 0,0.07312 -0.0587,0.131776 -0.13177,0.131776 h -0.37673 c -0.049,0 -0.0914,-0.02611 -0.1142,-0.06563 -0.46932,0.02635 -1.83346,0.04821 -2.57142,-0.512114 -0.26157,-0.198607 -0.43905,-0.39842 -0.56017,-0.582393 a 3.6497813,3.6736827 0 0 0 1.88981,2.047939 5.2971826,6.5663404 0 0 0 -3.76515,6.02547 h 10.5823 a 5.2971826,6.5663404 0 0 0 -3.76669,-6.025989 3.6497813,3.6736827 0 0 0 2.1239,-3.335195 3.6497813,3.6736827 0 0 0 -3.64991,-3.673678 z" />
  </g>
</svg>
